<svg width="21" height="16" viewBox="0 0 21 16" fill="none" xmlns="http://www.w3.org/2000/svg">
<path d="M2.81243 16H17.5005C19.3526 16 20.313 15.0482 20.313 13.2219V2.77814C20.313 0.951769 19.3526 0 17.5005 0H2.81243C0.960343 0 0 0.943194 0 2.77814V13.2219C0 15.0482 0.960343 16 2.81243 16ZM2.91533 14C2.1179 14 2 13.9078 2 13.0761V2.9239C2 2.09218 2.1179 2 2.91533 2H17.3976C18.1865 2 18.5 2.09218 18.5 2.9239V13C18.5 13.8317 18.1865 14 17.3976 14H2.91533ZM4.51018 5.06752H5.48767C5.8478 5.06752 6.15648 4.76742 6.15648 4.39871C6.15648 4.03001 5.8478 3.7299 5.48767 3.7299H4.51018C4.14148 3.7299 3.84137 4.03001 3.84137 4.39871C3.84137 4.76742 4.14148 5.06752 4.51018 5.06752ZM7.85423 4.95606H15.8971C16.2058 4.95606 16.4544 4.71597 16.4544 4.39871C16.4544 4.09003 16.2058 3.84995 15.8971 3.84995H7.85423C7.53698 3.84995 7.29689 4.09003 7.29689 4.39871C7.29689 4.71597 7.53698 4.95606 7.85423 4.95606ZM4.51018 7.87996H5.48767C5.8478 7.87996 6.15648 7.58842 6.15648 7.21972C6.15648 6.85102 5.85638 6.55091 5.48767 6.55091H4.51018C4.14148 6.55091 3.84137 6.85102 3.84137 7.21972C3.84137 7.58842 4.14148 7.87996 4.51018 7.87996ZM7.85423 7.77706H15.8971C16.2058 7.77706 16.4544 7.53698 16.4544 7.21972C16.4544 6.90247 16.2058 6.65381 15.8971 6.65381H7.85423C7.54555 6.65381 7.29689 6.90247 7.29689 7.21972C7.29689 7.5284 7.53698 7.77706 7.85423 7.77706Z" fill="#F37216"/>
</svg>
