<svg width="20" height="22" viewBox="0 0 20 22" fill="none" xmlns="http://www.w3.org/2000/svg">
<path fill-rule="evenodd" clip-rule="evenodd" d="M8.88716 2.73288C8.88204 2.7399 8.87605 2.74869 8.86932 2.75953C8.80477 2.86353 8.74011 3.04744 8.70994 3.2758C8.57433 4.30226 7.97865 5.26123 7.00931 5.82088C6.04023 6.38038 4.91225 6.41689 3.95567 6.02144C3.74307 5.93356 3.55169 5.89763 3.42931 5.90151C3.41616 5.90193 3.40527 5.90276 3.39646 5.90372C2.94371 6.48935 2.56744 7.13637 2.28221 7.82982C2.28571 7.8377 2.29029 7.84718 2.29626 7.8583C2.35401 7.96593 2.48082 8.11355 2.66339 8.25359C3.48549 8.8842 4.01889 9.88015 4.01889 11.0002C4.01889 12.1203 3.48549 13.1163 2.66339 13.7469C2.48082 13.8869 2.35401 14.0345 2.29626 14.1422C2.29029 14.1533 2.28571 14.1628 2.28221 14.1706C2.56744 14.8641 2.94371 15.5111 3.39646 16.0967C3.40527 16.0977 3.41615 16.0985 3.4293 16.0989C3.55168 16.1028 3.74307 16.0669 3.95567 15.979C4.91224 15.5836 6.04023 15.6201 7.00931 16.1796C7.97866 16.7392 8.57433 17.6982 8.70994 18.7247C8.74011 18.953 8.80476 19.1369 8.86932 19.2409C8.87605 19.2518 8.88204 19.2606 8.88716 19.2676C9.25059 19.316 9.6219 19.341 9.9996 19.341C10.3773 19.341 10.7486 19.316 11.112 19.2676C11.1172 19.2606 11.1231 19.2518 11.1299 19.2409C11.1944 19.1369 11.2591 18.953 11.2893 18.7247C11.4249 17.6982 12.0205 16.7392 12.9899 16.1796C13.959 15.6201 15.087 15.5836 16.0435 15.979C16.2561 16.0669 16.4475 16.1028 16.5699 16.0989C16.5831 16.0985 16.5939 16.0977 16.6027 16.0967C17.0555 15.5111 17.4317 14.8641 17.717 14.1707C17.7135 14.1628 17.7089 14.1534 17.7029 14.1422C17.6452 14.0346 17.5183 13.887 17.3357 13.7469C16.5136 13.1163 15.9802 12.1203 15.9802 11.0002C15.9802 9.88012 16.5136 8.88414 17.3357 8.25354C17.5183 8.11349 17.6452 7.96587 17.7029 7.85823C17.7089 7.84711 17.7135 7.83762 17.717 7.82974C17.4317 7.13632 17.0555 6.48932 16.6027 5.90372C16.5939 5.90276 16.583 5.90193 16.5699 5.90151C16.4475 5.89763 16.2561 5.93356 16.0435 6.02144C15.087 6.41689 13.959 6.38038 12.9899 5.82088C12.0205 5.26123 11.4249 4.30225 11.2893 3.2758C11.2591 3.04744 11.1944 2.86353 11.1299 2.75953C11.1231 2.74869 11.1172 2.7399 11.112 2.73288C10.7486 2.68451 10.3773 2.65947 9.9996 2.65947C9.62189 2.65947 9.2506 2.68451 8.88716 2.73288ZM8.52484 0.561961C9.00728 0.494353 9.49968 0.459473 9.9996 0.459473C10.4995 0.459473 10.9919 0.494352 11.4743 0.561959C12.2199 0.666439 12.7125 1.13762 12.9991 1.59936C13.2776 2.04814 13.4136 2.55841 13.4703 2.98765C13.5202 3.36558 13.7376 3.71223 14.0899 3.91562C14.4421 4.11896 14.8508 4.13392 15.203 3.98832C15.6028 3.82305 16.1122 3.6859 16.6396 3.70261C17.1821 3.71981 17.8355 3.91012 18.2992 4.50155C18.9051 5.27442 19.4058 6.13458 19.7791 7.06045C20.0604 7.75821 19.8983 8.41983 19.6415 8.8984C19.3919 9.36354 19.018 9.73587 18.6747 9.99917C18.372 10.2314 18.1802 10.5932 18.1802 11.0002C18.1802 11.4073 18.372 11.7691 18.6747 12.0013C19.018 12.2646 19.3919 12.6369 19.6415 13.1021C19.8983 13.5806 20.0604 14.2422 19.7791 14.94C19.4058 15.8659 18.9051 16.726 18.2992 17.4989C17.8355 18.0903 17.1821 18.2807 16.6396 18.2978C16.1122 18.3146 15.6028 18.1774 15.203 18.0121C14.8508 17.8665 14.4421 17.8815 14.0899 18.0848C13.7376 18.2882 13.5202 18.6349 13.4703 19.0128C13.4136 19.442 13.2777 19.9523 12.9991 20.4011C12.7125 20.8628 12.2199 21.334 11.4743 21.4385C10.9919 21.5061 10.4995 21.541 9.9996 21.541C9.49968 21.541 9.00728 21.5061 8.52484 21.4385C7.77927 21.334 7.28667 20.8628 7.00009 20.4011C6.72154 19.9523 6.5856 19.442 6.52889 19.0128C6.47896 18.6349 6.26159 18.2882 5.90931 18.0848C5.55713 17.8815 5.14836 17.8665 4.79616 18.0121C4.39635 18.1774 3.88704 18.3146 3.35961 18.2978C2.81708 18.2806 2.16367 18.0903 1.69999 17.4989C1.09405 16.726 0.593389 15.8658 0.22007 14.9399C-0.0612526 14.2422 0.100903 13.5806 0.357673 13.102C0.607236 12.6369 0.981142 12.2646 1.3244 12.0013C1.6271 11.7691 1.81889 11.4073 1.81889 11.0002C1.81889 10.5932 1.6271 10.2314 1.3244 9.99919C0.981141 9.73589 0.607236 9.36357 0.357673 8.89844C0.100903 8.41987 -0.0612525 7.75829 0.220071 7.06055C0.59339 6.13464 1.09405 5.27445 1.69999 4.50156C2.16367 3.91013 2.81708 3.71981 3.35962 3.70262C3.88704 3.6859 4.39636 3.82305 4.79616 3.98832C5.14836 4.13392 5.55713 4.11896 5.90931 3.91562C6.26159 3.71223 6.47896 3.36558 6.52889 2.98765C6.5856 2.55841 6.72155 2.04814 7.00009 1.59936C7.28668 1.13762 7.77927 0.666442 8.52484 0.561961ZM9.9996 9.74004C9.30362 9.74004 8.73941 10.3042 8.73941 11.0002C8.73941 11.6962 9.30362 12.2604 9.9996 12.2604C10.6956 12.2604 11.2598 11.6962 11.2598 11.0002C11.2598 10.3042 10.6956 9.74004 9.9996 9.74004ZM6.53941 11.0002C6.53941 9.08922 8.08859 7.54004 9.9996 7.54004C11.9106 7.54004 13.4598 9.08922 13.4598 11.0002C13.4598 12.9112 11.9106 14.4604 9.9996 14.4604C8.08859 14.4604 6.53941 12.9112 6.53941 11.0002Z" fill="#F37216"/>
</svg>
